# Blender 3.5.0
# www.blender.org
mtllib cube2.mtl
g node_id3_Mesh
v -0.057604 -0.057604 0.115207
v 0.057604 -0.057604 0.115207
v -0.057604 0.057604 0.115207
v 0.057604 0.057604 0.115207
v -0.057604 0.057604 0.115207
v 0.057604 0.057604 0.115207
v -0.057604 0.057604 0.000000
v 0.057604 0.057604 0.000000
v -0.057604 0.057604 0.000000
v 0.057604 0.057604 0.000000
v -0.057604 -0.057604 0.000000
v 0.057604 -0.057604 0.000000
v -0.057604 -0.057604 0.000000
v 0.057604 -0.057604 0.000000
v -0.057604 -0.057604 0.115207
v -0.057604 -0.057604 0.115207
v 0.057604 -0.057604 0.000000
v 0.057604 -0.057604 0.115207
v 0.057604 -0.057604 0.115207
v 0.057604 -0.057604 0.000000
v 0.057604 0.057604 0.115207
v 0.057604 0.057604 0.000000
v -0.057604 -0.057604 0.000000
v -0.057604 -0.057604 0.115207
v -0.057604 0.057604 0.000000
v -0.057604 0.057604 0.000000
v -0.057604 -0.057604 0.115207
v -0.057604 0.057604 0.115207
vn -0.0000 -0.0000 1.0000
vn -0.0000 1.0000 -0.0000
vn -0.0000 -0.0000 -1.0000
vn -0.0000 -1.0000 -0.0000
vn 1.0000 -0.0000 -0.0000
vn -1.0000 -0.0000 -0.0000
vt 0.682530 0.566390
vt 0.596594 0.236499
vt 0.324999 0.445789
vt 0.297888 0.200414
vt 0.324999 0.445789
vt 0.297888 0.200414
vt 0.000114 0.594200
vt 0.098105 0.000209
vt 0.554136 0.574392
vt 0.175229 0.633457
vt 0.495695 0.833634
vt 0.288244 0.999909
vt 0.495695 0.833634
vt 0.288244 0.999909
vt 0.754639 0.995513
vt 0.682530 0.566390
vt 0.755648 0.014955
vt 0.596594 0.236499
vt 0.596594 0.236499
vt 0.755648 0.014955
vt 0.297888 0.200414
vt 0.098105 0.000209
vt 0.495695 0.833634
vt 0.754639 0.995513
vt 0.554136 0.574392
vt 0.000114 0.594200
vt 0.682530 0.566390
vt 0.324999 0.445789
s 0
usemtl 63
f 1/1/1 2/2/1 3/3/1
f 3/3/1 2/2/1 4/4/1
f 5/5/2 6/6/2 7/7/2
f 7/7/2 6/6/2 8/8/2
f 9/9/3 10/10/3 11/11/3
f 11/11/3 10/10/3 12/12/3
f 13/13/4 14/14/4 15/15/4
f 16/16/4 17/17/4 18/18/4
f 19/19/5 20/20/5 21/21/5
f 21/21/5 20/20/5 22/22/5
f 23/23/6 24/24/6 25/25/6
f 26/26/6 27/27/6 28/28/6
