# Blender 3.5.0
# www.blender.org
mtllib rat.mtl
g Rat_Mesh
v 0.008781 0.010790 -0.066824
v -0.004763 0.020092 0.145628
v -0.039514 0.070693 0.005507
v 0.039514 0.070693 0.005507
v -0.026863 0.011832 -0.049709
v 0.030659 0.018827 0.058713
v 0.000000 0.058192 0.104403
v 0.000000 0.089297 -0.000149
v -0.000446 0.049337 -0.063029
v 0.004763 0.020092 0.145628
v 0.026863 0.011832 -0.049709
v -0.030659 0.018827 0.058713
v 0.000000 0.012427 0.137294
v 0.000000 0.007739 -0.300186
v 0.000000 0.002902 -0.049709
v 0.000000 0.018306 -0.066824
v -0.018231 0.051346 0.095845
v 0.018231 0.051346 0.095845
v -0.012204 0.072256 0.108570
v 0.012204 0.072256 0.108570
v 0.000000 0.060127 0.098747
v -0.008781 0.010790 -0.066824
v 0.023589 0.037877 -0.051569
v -0.021803 0.037579 -0.052462
v -0.000223 0.014957 0.088999
v 0.018083 0.028277 0.087883
v -0.018529 0.028501 0.088255
v -0.039514 0.017413 0.007441
v 0.039514 0.017413 0.007441
v 0.006548 -0.000149 -0.039514
v 0.025747 0.001488 0.001488
v 0.020985 0.009674 -0.009376
v 0.029468 0.001042 -0.007367
v -0.006548 -0.000149 -0.039514
v -0.025747 0.001488 0.001488
v -0.020985 0.009674 -0.009376
v -0.029468 0.001042 -0.007367
v -0.015106 0.001339 -0.003051
v 0.015106 0.001339 -0.003051
v 0.005655 0.000074 0.043235
v 0.021803 0.001191 0.071140
v 0.015850 0.007367 0.060350
v 0.024036 0.000819 0.064145
v -0.005655 0.000074 0.043235
v -0.021803 0.001191 0.071140
v -0.015850 0.007367 0.060350
v -0.024036 0.000819 0.064145
v 0.013469 0.001042 0.068387
v -0.013469 0.001042 0.068387
v 0.000000 0.004167 0.049188
v -0.021431 0.065708 0.105668
v 0.021431 0.065708 0.105668
v 0.000000 0.005730 0.009302
v -0.005581 0.009674 -0.151581
v 0.005581 0.009674 -0.151581
v 0.000000 0.003274 -0.066824
v 0.000000 0.014511 -0.151581
v 0.000000 0.004911 -0.151581
v -0.039514 0.070693 0.005507
v -0.039514 0.070693 0.005507
v 0.000000 0.089297 -0.000149
v 0.000000 0.089297 -0.000149
v 0.000000 0.089297 -0.000149
v 0.000000 0.058192 0.104403
v 0.000000 0.058192 0.104403
v 0.000000 0.058192 0.104403
v 0.000000 0.058192 0.104403
v 0.000000 0.058192 0.104403
v 0.000000 0.058192 0.104403
v 0.004763 0.020092 0.145628
v 0.004763 0.020092 0.145628
v 0.004763 0.020092 0.145628
v 0.004763 0.020092 0.145628
v 0.008781 0.010790 -0.066824
v 0.008781 0.010790 -0.066824
v 0.008781 0.010790 -0.066824
v 0.026863 0.011832 -0.049709
v -0.000446 0.049337 -0.063029
v -0.000446 0.049337 -0.063029
v -0.000446 0.049337 -0.063029
v 0.000000 0.018306 -0.066824
v 0.000000 0.018306 -0.066824
v 0.000000 0.018306 -0.066824
v -0.018231 0.051346 0.095845
v -0.018231 0.051346 0.095845
v -0.018231 0.051346 0.095845
v -0.018231 0.051346 0.095845
v 0.018231 0.051346 0.095845
v 0.018231 0.051346 0.095845
v 0.018231 0.051346 0.095845
v 0.018231 0.051346 0.095845
v -0.012204 0.072256 0.108570
v -0.012204 0.072256 0.108570
v 0.012204 0.072256 0.108570
v 0.012204 0.072256 0.108570
v -0.026863 0.011832 -0.049709
v -0.008781 0.010790 -0.066824
v -0.008781 0.010790 -0.066824
v 0.023589 0.037877 -0.051569
v 0.023589 0.037877 -0.051569
v -0.021803 0.037579 -0.052462
v 0.000000 0.012427 0.137294
v 0.000000 0.012427 0.137294
v -0.000223 0.014957 0.088999
v -0.000223 0.014957 0.088999
v 0.018083 0.028277 0.087883
v 0.018083 0.028277 0.087883
v 0.025747 0.001488 0.001488
v 0.025747 0.001488 0.001488
v 0.029468 0.001042 -0.007367
v 0.029468 0.001042 -0.007367
v -0.025747 0.001488 0.001488
v -0.025747 0.001488 0.001488
v -0.020985 0.009674 -0.009376
v -0.020985 0.009674 -0.009376
v -0.020985 0.009674 -0.009376
v -0.029468 0.001042 -0.007367
v -0.029468 0.001042 -0.007367
v -0.015106 0.001339 -0.003051
v -0.015106 0.001339 -0.003051
v 0.015106 0.001339 -0.003051
v 0.015106 0.001339 -0.003051
v 0.021803 0.001191 0.071140
v 0.021803 0.001191 0.071140
v 0.015850 0.007367 0.060350
v 0.015850 0.007367 0.060350
v 0.015850 0.007367 0.060350
v 0.024036 0.000819 0.064145
v 0.024036 0.000819 0.064145
v -0.021803 0.001191 0.071140
v -0.021803 0.001191 0.071140
v -0.015850 0.007367 0.060350
v -0.015850 0.007367 0.060350
v -0.015850 0.007367 0.060350
v -0.024036 0.000819 0.064145
v -0.024036 0.000819 0.064145
v 0.013469 0.001042 0.068387
v 0.013469 0.001042 0.068387
v -0.013469 0.001042 0.068387
v -0.013469 0.001042 0.068387
v 0.000000 0.004167 0.049188
v 0.000000 0.002902 -0.049709
v 0.000000 0.005730 0.009302
v 0.005581 0.009674 -0.151581
v 0.000000 0.003274 -0.066824
v 0.000000 0.004911 -0.151581
v 0.000000 0.007739 -0.300186
v 0.000000 0.007739 -0.300186
v 0.000000 0.007739 -0.300186
v -0.005581 0.009674 -0.151581
v 0.000000 0.014511 -0.151581
v 0.006548 -0.000149 -0.039514
v 0.006548 -0.000149 -0.039514
v 0.000000 0.060127 0.098747
v 0.000000 0.060127 0.098747
v 0.000000 0.060127 0.098747
v 0.000000 0.060127 0.098747
v 0.000000 0.060127 0.098747
v 0.021431 0.065708 0.105668
v 0.020985 0.009674 -0.009376
v 0.020985 0.009674 -0.009376
v 0.020985 0.009674 -0.009376
v -0.039514 0.017413 0.007441
v -0.006548 -0.000149 -0.039514
v -0.006548 -0.000149 -0.039514
v 0.039514 0.017413 0.007441
v -0.004763 0.020092 0.145628
v -0.004763 0.020092 0.145628
v -0.004763 0.020092 0.145628
v -0.004763 0.020092 0.145628
v 0.039514 0.070693 0.005507
v 0.039514 0.070693 0.005507
v 0.030659 0.018827 0.058713
v -0.030659 0.018827 0.058713
v -0.018529 0.028501 0.088255
v 0.005655 0.000074 0.043235
v 0.005655 0.000074 0.043235
v -0.005655 0.000074 0.043235
v -0.005655 0.000074 0.043235
v -0.021431 0.065708 0.105668
vn 0.9668 0.0309 0.2537
vn 0.9995 0.0324 0.0004
vn 0.9618 -0.0419 0.2707
vn -0.5350 -0.8285 0.1651
vn -0.5958 -0.7593 0.2617
vn -0.4179 -0.8829 0.2143
vn -0.3571 -0.9263 0.1200
vn -0.3667 0.2524 -0.8954
vn -0.4639 0.2327 -0.8548
vn -0.7481 0.1383 -0.6490
vn -0.4847 0.0993 -0.8690
vn -0.3171 -0.9479 0.0315
vn -0.3148 -0.9469 -0.0657
vn -0.3760 -0.9236 -0.0747
vn -0.2837 -0.9589 0.0030
vn -0.8548 0.0702 -0.5142
vn -0.9992 0.0388 -0.0065
vn -0.4668 0.7331 -0.4946
vn -0.5354 0.6702 -0.5140
vn -0.5949 0.6061 -0.5280
vn -0.9997 -0.0010 -0.0262
vn -0.7605 -0.6449 0.0760
vn -0.7917 -0.6024 0.1017
vn -0.3893 0.8822 0.2650
vn -0.4524 0.8443 0.2874
vn -0.4326 0.8568 0.2805
vn -0.3802 0.8871 0.2617
vn -0.9351 -0.1007 0.3399
vn -0.9726 -0.0619 0.2243
vn -0.9621 -0.0270 0.2713
vn -0.5076 0.6612 0.5524
vn -0.5432 -0.8331 -0.1045
vn -0.6502 -0.7596 -0.0155
vn -0.4287 0.7639 -0.4824
vn -0.9676 0.0356 0.2498
vn 0.4169 -0.8829 0.2160
vn 0.5403 -0.7039 0.4610
vn 0.4538 -0.8158 0.3585
vn 0.3760 -0.9236 -0.0747
vn 0.3148 -0.9469 -0.0657
vn 0.3171 -0.9479 0.0315
vn 0.2837 -0.9589 0.0030
vn 0.4594 0.7361 -0.4972
vn 0.5571 0.6432 -0.5253
vn 0.5091 0.6916 -0.5124
vn 0.4712 0.1138 -0.8746
vn 0.4304 0.1720 -0.8861
vn 0.3666 0.2555 -0.8946
vn 0.3567 -0.9262 0.1220
vn 0.8587 0.0437 -0.5106
vn 0.9997 -0.0010 -0.0262
vn 0.7940 -0.6000 0.0981
vn 0.7618 -0.6437 0.0723
vn 0.6227 -0.7821 -0.0230
vn 0.5860 -0.8091 -0.0451
vn 0.9283 -0.1267 0.3497
vn 0.3893 0.8822 0.2650
vn 0.3802 0.8871 0.2617
vn 0.4326 0.8568 0.2805
vn 0.4524 0.8443 0.2874
vn 0.8906 0.0800 -0.4476
vn 0.9737 -0.0799 0.2133
vn 0.5076 0.6612 0.5524
vn 0.6860 0.0343 -0.7268
vn 0.2931 0.3425 -0.8926
vn 0.6502 -0.7596 -0.0155
vn 0.5432 -0.8331 -0.1045
vn 0.4281 0.7613 -0.4869
vn -0.0000 -0.7361 0.6769
vn -0.1120 -0.4670 0.8771
vn -0.1566 -0.5811 0.7986
vn -0.1201 -0.4879 0.8646
vn -0.0607 -0.3316 0.9414
vn 0.1201 -0.4879 0.8646
vn 0.1566 -0.5811 0.7986
vn 0.1120 -0.4670 0.8771
vn 0.0607 -0.3316 0.9414
vn -0.1279 0.5403 -0.8317
vn -0.1269 0.5426 -0.8304
vn -0.1271 0.5421 -0.8307
vn 0.7685 0.6054 0.2071
vn -0.1259 0.5448 -0.8291
vn 0.1269 0.5426 -0.8304
vn 0.1279 0.5403 -0.8317
vn 0.1271 0.5421 -0.8307
vn -0.7685 0.6054 0.2071
vn 0.1259 0.5448 -0.8291
vn 0.6501 0.7590 -0.0345
vn 0.6499 0.7593 -0.0345
vn 0.6543 0.7554 -0.0341
vn 0.6545 0.7552 -0.0341
vn 0.6545 0.7552 -0.0344
vn -0.6543 0.7554 -0.0341
vn -0.6499 0.7593 -0.0345
vn -0.6501 0.7590 -0.0345
vn -0.6545 0.7552 -0.0341
vn -0.6545 0.7552 -0.0344
vn -0.6491 -0.7606 -0.0146
vn -0.6491 -0.7606 -0.0145
vn 0.6491 -0.7606 -0.0146
vn 0.6491 -0.7606 -0.0145
vn -0.2886 0.6996 0.6536
vn 0.2019 0.7978 0.5681
vn 0.7856 0.5776 0.2218
vn 0.0051 -0.9992 0.0400
vn 0.0034 -0.9990 0.0442
vn 0.0028 -0.9990 0.0455
vn -0.0003 -0.9986 0.0532
vn -0.6530 0.4738 -0.5908
vn -0.5776 0.8040 0.1416
vn 0.2886 0.6996 0.6536
vn 0.7508 0.6433 0.1499
vn 0.0079 -0.9991 0.0426
vn 0.0074 -0.9990 0.0442
vn 0.0073 -0.9990 0.0447
vn 0.0064 -0.9988 0.0477
vn -0.6730 0.5450 -0.5000
vn -0.6630 0.7081 0.2429
vn -0.2019 0.7978 0.5681
vn -0.7856 0.5776 0.2218
vn -0.0051 -0.9992 0.0400
vn -0.0028 -0.9990 0.0455
vn -0.0034 -0.9990 0.0442
vn 0.0003 -0.9986 0.0532
vn 0.6530 0.4738 -0.5908
vn 0.5776 0.8040 0.1416
vn -0.7508 0.6433 0.1499
vn -0.0079 -0.9991 0.0426
vn -0.0073 -0.9990 0.0447
vn -0.0074 -0.9990 0.0442
vn -0.0064 -0.9988 0.0477
vn 0.6730 0.5450 -0.5000
vn 0.6630 0.7081 0.2429
vn -0.0000 0.7344 0.6787
vt 0.823529 0.313725
vt 0.039216 0.266667
vt 0.505882 0.615686
vt 0.505882 0.615686
vt 0.756863 0.313725
vt 0.337255 0.294118
vt 0.039216 0.796078
vt 0.533333 0.772549
vt 0.811765 0.580392
vt 0.074510 0.254902
vt 0.756863 0.313725
vt 0.337255 0.294118
vt 0.086275 0.188235
vt 0.890196 0.074510
vt 0.756863 0.219608
vt 0.023529 0.129412
vt 0.207843 0.749020
vt 0.207843 0.745098
vt 0.121569 0.941176
vt 0.117647 0.941176
vt 0.086275 0.784314
vt 0.823529 0.313725
vt 0.027451 0.078431
vt 0.749020 0.423529
vt 0.752941 0.423529
vt 0.250980 0.313725
vt 0.223529 0.380392
vt 0.223529 0.384314
vt 0.529412 0.309804
vt 0.529412 0.309804
vt 0.909804 0.317647
vt 0.909804 0.666667
vt 0.909804 0.576471
vt 0.843137 0.592157
vt 0.913726 0.325490
vt 0.913726 0.666667
vt 0.909804 0.576471
vt 0.976471 0.592157
vt 0.847059 0.592157
vt 0.976471 0.592157
vt 0.913726 0.337255
vt 0.913726 0.658823
vt 0.909804 0.576471
vt 0.850980 0.592157
vt 0.917647 0.329412
vt 0.917647 0.662745
vt 0.909804 0.580392
vt 0.976471 0.596078
vt 0.972549 0.596078
vt 0.847059 0.596078
vt 0.352941 0.223529
vt 0.219608 0.905882
vt 0.945098 0.890196
vt 0.521569 0.274510
vt 0.482353 0.078431
vt 0.478431 0.078431
vt 0.819608 0.211765
vt 0.027451 0.035294
vt 0.482353 0.098039
vt 0.482353 0.058823
vt 0.505882 0.615686
vt 0.505882 0.615686
vt 0.533333 0.772549
vt 0.533333 0.772549
vt 0.533333 0.772549
vt 0.145098 0.584314
vt 0.788235 0.768627
vt 0.788235 0.768627
vt 0.145098 0.584314
vt 0.039216 0.796078
vt 0.113725 0.513725
vt 0.043137 0.235294
vt 0.047059 0.262745
vt 0.043137 0.235294
vt 0.043137 0.235294
vt 0.823529 0.313725
vt 0.027451 0.078431
vt 0.823529 0.313725
vt 0.027451 0.078431
vt 0.756863 0.313725
vt 0.811765 0.580392
vt 0.811765 0.580392
vt 0.811765 0.580392
vt 0.823529 0.372549
vt 0.823529 0.372549
vt 0.023529 0.129412
vt 0.203922 0.529412
vt 0.203922 0.529412
vt 0.203922 0.529412
vt 0.968628 0.694118
vt 0.203922 0.529412
vt 0.203922 0.529412
vt 0.968628 0.694118
vt 0.203922 0.529412
vt 0.882353 0.929412
vt 0.121569 0.941176
vt 0.878431 0.925490
vt 0.117647 0.941176
vt 0.756863 0.313725
vt 0.823529 0.313725
vt 0.027451 0.078431
vt 0.749020 0.423529
vt 0.749020 0.423529
vt 0.752941 0.423529
vt 0.098039 0.203922
vt 0.098039 0.203922
vt 0.250980 0.313725
vt 0.250980 0.313725
vt 0.223529 0.380392
vt 0.223529 0.380392
vt 0.909804 0.666667
vt 0.909804 0.666667
vt 0.843137 0.592157
vt 0.843137 0.592157
vt 0.913726 0.666667
vt 0.913726 0.666667
vt 0.909804 0.576471
vt 0.909804 0.576471
vt 0.909804 0.576471
vt 0.976471 0.592157
vt 0.976471 0.592157
vt 0.847059 0.592157
vt 0.847059 0.592157
vt 0.976471 0.592157
vt 0.976471 0.592157
vt 0.913726 0.658823
vt 0.913726 0.658823
vt 0.909804 0.576471
vt 0.909804 0.576471
vt 0.909804 0.576471
vt 0.850980 0.592157
vt 0.850980 0.592157
vt 0.917647 0.662745
vt 0.917647 0.662745
vt 0.909804 0.580392
vt 0.909804 0.580392
vt 0.909804 0.580392
vt 0.976471 0.596078
vt 0.976471 0.596078
vt 0.972549 0.596078
vt 0.972549 0.596078
vt 0.847059 0.596078
vt 0.847059 0.596078
vt 0.352941 0.223529
vt 0.756863 0.219608
vt 0.521569 0.274510
vt 0.478431 0.078431
vt 0.819608 0.211765
vt 0.027451 0.035294
vt 0.482353 0.058823
vt 0.890196 0.074510
vt 0.890196 0.074510
vt 0.890196 0.074510
vt 0.482353 0.078431
vt 0.482353 0.098039
vt 0.909804 0.317647
vt 0.909804 0.317647
vt 0.207843 0.698039
vt 0.086275 0.784314
vt 0.086275 0.784314
vt 0.207843 0.698039
vt 0.086275 0.784314
vt 0.223529 0.905882
vt 0.909804 0.576471
vt 0.909804 0.576471
vt 0.909804 0.576471
vt 0.529412 0.309804
vt 0.913726 0.325490
vt 0.913726 0.325490
vt 0.529412 0.309804
vt 0.043137 0.235294
vt 0.007843 0.215686
vt 0.043137 0.235294
vt 0.043137 0.235294
vt 0.505882 0.615686
vt 0.505882 0.615686
vt 0.337255 0.294118
vt 0.337255 0.294118
vt 0.223529 0.384314
vt 0.913726 0.337255
vt 0.913726 0.337255
vt 0.917647 0.329412
vt 0.917647 0.329412
vt 0.949020 0.890196
s 1
usemtl Surface0
f 6/6/1 171/175/2 88/91/3
f 104/107/4 175/179/5 12/12/6
f 104/107/4 12/12/6 50/51/7
f 81/84/8 97/100/9 101/104/10
f 79/82/11 81/84/8 101/104/10
f 163/167/12 5/5/13 142/145/14
f 163/167/12 142/145/14 143/146/15
f 101/104/10 96/99/16 59/61/17
f 3/3/18 78/81/19 24/25/20
f 96/99/16 101/104/10 97/100/9
f 50/51/7 12/12/6 163/167/12
f 59/61/17 96/99/16 28/29/21
f 175/179/5 102/105/22 169/173/23
f 102/105/22 175/179/5 104/107/4
f 60/62/24 84/87/25 154/158/26
f 154/158/26 61/63/27 60/62/24
f 27/28/28 170/174/29 86/89/30
f 67/69/31 85/88/31 167/171/31
f 22/22/32 145/148/33 142/145/14
f 142/145/14 5/5/13 22/22/32
f 78/81/19 3/3/18 63/65/34
f 143/146/15 50/51/7 163/167/12
f 59/61/17 28/29/21 174/178/35
f 86/89/30 59/61/17 174/178/35
f 27/28/28 86/89/30 174/178/35
f 173/177/36 107/110/37 105/108/38
f 15/15/39 11/11/40 166/170/41
f 15/15/39 166/170/41 53/54/42
f 4/4/43 99/102/44 80/83/45
f 9/9/46 23/24/47 82/85/48
f 141/144/49 53/54/42 166/170/41
f 173/177/36 141/144/49 166/170/41
f 77/80/50 171/175/2 29/30/51
f 72/74/52 103/106/53 26/27/54
f 25/26/55 26/27/54 103/106/53
f 173/177/36 105/108/38 141/144/49
f 6/6/1 88/91/3 106/109/56
f 172/176/57 62/64/58 157/161/59
f 157/161/59 91/94/60 172/176/57
f 77/80/50 100/103/61 171/175/2
f 73/75/62 106/109/56 88/91/3
f 70/72/63 89/92/63 64/66/63
f 100/103/61 77/80/50 74/76/64
f 23/24/47 1/1/65 82/85/48
f 15/15/39 56/57/66 76/78/67
f 11/11/40 15/15/39 76/78/67
f 4/4/43 80/83/45 8/8/68
f 6/6/1 29/30/51 171/175/2
f 168/172/69 13/13/69 71/73/69
f 180/184/70 87/90/71 65/67/72
f 65/67/72 92/95/73 180/184/70
f 66/68/74 90/93/75 52/53/76
f 52/53/76 94/97/77 66/68/74
f 17/17/78 51/52/79 158/162/80
f 68/70/81 156/160/81 93/96/81
f 51/52/79 19/19/82 158/162/80
f 159/163/83 18/18/84 155/159/85
f 21/21/86 7/7/86 95/98/86
f 20/20/87 159/163/83 155/159/85
f 16/16/88 75/77/89 144/147/90
f 144/147/90 151/155/91 16/16/88
f 151/155/91 144/147/90 148/152/92
f 150/154/93 98/101/94 83/86/95
f 57/59/96 150/154/93 83/86/95
f 150/154/93 57/59/96 147/151/97
f 145/149/33 22/23/32 54/55/98
f 54/55/98 58/60/98 145/149/33
f 58/60/98 54/55/98 149/153/99
f 55/56/100 76/79/67 56/58/66
f 146/150/100 55/56/100 56/58/66
f 55/56/100 146/150/100 14/14/101
f 109/112/102 162/166/102 121/124/102
f 132/135/103 130/133/103 139/142/103
f 178/182/104 133/136/104 49/50/104
f 179/183/105 140/143/106 135/138/107
f 131/134/108 135/138/107 140/143/106
f 134/137/109 44/45/109 136/139/109
f 45/46/110 46/47/110 47/48/110
f 114/117/111 112/115/111 119/122/111
f 164/168/112 116/119/112 120/123/112
f 165/169/113 38/39/114 117/120/115
f 113/116/116 117/120/115 38/39/114
f 115/118/117 34/35/117 118/121/117
f 35/36/118 36/37/118 37/38/118
f 123/126/119 125/128/119 137/140/119
f 126/129/120 176/180/120 48/49/120
f 177/181/121 128/131/122 138/141/123
f 124/127/124 138/141/123 128/131/122
f 40/41/125 127/130/125 129/132/125
f 42/43/126 41/42/126 43/44/126
f 161/165/127 152/156/127 122/125/127
f 153/157/128 110/113/129 39/40/130
f 108/111/131 39/40/130 110/113/129
f 30/31/132 160/164/132 111/114/132
f 32/33/133 31/32/133 33/34/133
f 2/2/134 10/10/134 69/71/134
